<?xml version="1.0" encoding="iso-8859-1"?>
<!-- Generator: Adobe Illustrator 19.1.0, SVG Export Plug-In . SVG Version: 6.00 Build 0)  -->
<svg version="1.1" id="Capa_1" xmlns="http://www.w3.org/2000/svg" xmlns:xlink="http://www.w3.org/1999/xlink" x="0px" y="0px"
	 viewBox="0 0 66.165 66.165" style="enable-background:new 0 0 66.165 66.165;" xml:space="preserve">
<g>
	<g id="group-27svg">
		<path id="path-1_19_" style="fill:#E56A77;" d="M50.951,6H23.958c-5.185,0-9.875,4.369-9.875,9.554v50.611L25.358,52h25.592
			c5.186,0,8.132-4.268,8.132-9.454V15.554C59.083,10.369,56.137,6,50.951,6z"/>
		<path id="path-2_19_" d="M8.583,63.665c-0.156,0-0.314-0.024-0.468-0.075c-0.615-0.202-1.032-0.777-1.032-1.425V11.554
			C7.083,5.399,12.165,0,17.958,0h26.993c6.342,0,10.132,5.874,10.132,11.554v26.992C55.083,44.701,50.917,49,44.951,49H20.118
			L9.792,63.053C9.503,63.445,9.051,63.665,8.583,63.665z M17.958,3c-4.195,0-7.875,3.997-7.875,8.554v46.037l8.067-10.979
			C18.434,46.227,18.882,46,19.359,46h25.592c4.266,0,7.132-2.996,7.132-7.454V11.554C52.083,7.349,49.415,3,44.951,3H17.958z"/>
		<path id="path-3_19_" d="M39.472,29.108l-2.574-0.915c-0.596-0.213-0.879-0.894-0.607-1.467l1.173-2.466
			c0.431-0.909-0.517-1.857-1.425-1.425l-2.467,1.172c-0.572,0.272-1.254-0.01-1.467-0.607l-0.915-2.573
			c-0.337-0.948-1.677-0.948-2.014,0L28.26,23.4c-0.213,0.597-0.895,0.879-1.467,0.607l-2.467-1.172
			c-0.909-0.432-1.856,0.516-1.425,1.425l1.172,2.466c0.273,0.573-0.01,1.254-0.607,1.467l-2.572,0.915
			c-0.949,0.337-0.949,1.678,0,2.016l2.572,0.914c0.597,0.212,0.88,0.895,0.607,1.467l-1.172,2.466
			c-0.431,0.909,0.516,1.858,1.425,1.425l2.467-1.172c0.572-0.272,1.254,0.01,1.467,0.607l0.915,2.574
			c0.337,0.948,1.677,0.948,2.014,0l0.915-2.574c0.213-0.597,0.895-0.879,1.467-0.607l2.467,1.172
			c0.908,0.433,1.856-0.516,1.425-1.425l-1.173-2.466c-0.272-0.572,0.011-1.255,0.607-1.467l2.574-0.914
			C40.42,30.786,40.42,29.445,39.472,29.108z M30.1,34.416c-2.381,0-4.312-1.931-4.312-4.312c0-2.38,1.931-4.311,4.312-4.311
			c2.38,0,4.311,1.931,4.311,4.311C34.41,32.485,32.479,34.416,30.1,34.416z"/>
	</g>
</g>
<g>
</g>
<g>
</g>
<g>
</g>
<g>
</g>
<g>
</g>
<g>
</g>
<g>
</g>
<g>
</g>
<g>
</g>
<g>
</g>
<g>
</g>
<g>
</g>
<g>
</g>
<g>
</g>
<g>
</g>
</svg>
